<svg xmlns="http://www.w3.org/2000/svg" width="350" height="92" viewBox="0 0 350 92" role="img" aria-labelledby="title desc">
  <title id="title">Tendaflow logo</title>
  <desc id="desc">Tendaflow horizontal logo lockup with approved F ribbon mark and light wordmark for dark backgrounds.</desc>
  <defs>
    <linearGradient id="tf-top" x1="12" y1="31" x2="74" y2="31" gradientUnits="userSpaceOnUse">
      <stop offset="0" stop-color="#A7EBF2"/>
      <stop offset="0.52" stop-color="#54ACBF"/>
      <stop offset="1" stop-color="#FFFFFF"/>
    </linearGradient>
    <linearGradient id="tf-mid" x1="25" y1="47" x2="61" y2="58" gradientUnits="userSpaceOnUse">
      <stop offset="0" stop-color="#FFFFFF"/>
      <stop offset="0.5" stop-color="#A7EBF2"/>
      <stop offset="1" stop-color="#54ACBF"/>
    </linearGradient>
    <linearGradient id="tf-tail" x1="24" y1="58" x2="42" y2="79" gradientUnits="userSpaceOnUse">
      <stop offset="0" stop-color="#54ACBF"/>
      <stop offset="1" stop-color="#A7EBF2"/>
    </linearGradient>
  </defs>
  <g aria-hidden="true">
    <path d="M12 34C12 29.6 15.6 26 20 26H74V29.4C74 36 68.6 41.4 62 41.4H12V34Z" fill="url(#tf-top)"/>
    <path d="M12 41.4C16.8 37.6 23.7 35.8 32.8 35.8H62C68.6 35.8 74 30.4 74 23.8V29.4C74 36 68.6 41.4 62 41.4H12Z" fill="#FFFFFF" opacity="0.14"/>
    <path d="M25 47H62V49.5C62 56.1 56.6 61.5 50 61.5H25V47Z" fill="url(#tf-mid)"/>
    <path d="M25 61.5H50C44.2 63.2 39.3 66.4 35.2 70.9L25 82V61.5Z" fill="url(#tf-tail)"/>
    <path d="M25 47H50C39.7 48.6 31.5 53.4 25 61.5V47Z" fill="#011C40" opacity="0.18"/>
    <path d="M25 61.5H35.3C30.9 64.5 27.5 68.9 25 74.8V61.5Z" fill="#011C40" opacity="0.1"/>
    <path d="M101 24V70" stroke="#A7EBF2" stroke-width="2.2" stroke-linecap="round" opacity="0.86"/>
  </g>
  <text x="122" y="59" fill="#FFFFFF" font-family="Inter, ui-sans-serif, system-ui, -apple-system, BlinkMacSystemFont, 'Segoe UI', sans-serif" font-size="37" font-weight="700" letter-spacing="-0.45">Tendaflow</text>
</svg>