<svg xmlns="http://www.w3.org/2000/svg" width="96" height="96" viewBox="0 0 96 96" role="img" aria-labelledby="title desc">
  <title id="title">Tendaflow app icon</title>
  <desc id="desc">Approved Tendaflow rounded app icon with flowing F ribbon mark.</desc>
  <defs>
    <linearGradient id="bg" x1="12" y1="8" x2="88" y2="88" gradientUnits="userSpaceOnUse">
      <stop offset="0" stop-color="#011C40"/>
      <stop offset="1" stop-color="#03295F"/>
    </linearGradient>
    <linearGradient id="top" x1="21" y1="31" x2="77" y2="42" gradientUnits="userSpaceOnUse">
      <stop offset="0" stop-color="#17699C"/>
      <stop offset="0.55" stop-color="#2C94AE"/>
      <stop offset="1" stop-color="#78DDE7"/>
    </linearGradient>
    <linearGradient id="middle" x1="31" y1="47" x2="69" y2="59" gradientUnits="userSpaceOnUse">
      <stop offset="0" stop-color="#A7EBF2"/>
      <stop offset="0.48" stop-color="#69CDD8"/>
      <stop offset="1" stop-color="#54ACBF"/>
    </linearGradient>
    <linearGradient id="tail" x1="31" y1="58" x2="46" y2="82" gradientUnits="userSpaceOnUse">
      <stop offset="0" stop-color="#54ACBF"/>
      <stop offset="0.58" stop-color="#78DDE7"/>
      <stop offset="1" stop-color="#A7EBF2"/>
    </linearGradient>
    <filter id="iconShadow" x="-18%" y="-18%" width="136%" height="136%">
      <feDropShadow dx="0" dy="10" stdDeviation="10" flood-color="#011C40" flood-opacity="0.18"/>
    </filter>
  </defs>
  <rect x="9" y="9" width="78" height="78" rx="18" fill="url(#bg)" filter="url(#iconShadow)"/>
  <g>
    <path d="M21.5 40.2C21.5 30.8 28.2 26.6 36.6 26.6H73.5C73.5 34.3 68.2 41.4 57.1 42.4H34.5C28.6 42.4 24.5 43.9 21.5 47.5V40.2Z" fill="url(#top)"/>
    <path d="M21.5 47.5C25.2 42.1 30.5 39.6 38.8 39.6H57.1C66.8 39.1 72.2 34.4 73.5 26.6V34.8C73.5 42.9 67.3 49.5 57 50H37.3C29.4 50 24.5 52.8 21.5 58.1V47.5Z" fill="#011C40" opacity="0.18"/>
    <path d="M31.8 50.2C34.7 47 39.2 45.3 45.4 45.3H62.3C62.3 53.5 56.7 60.2 46.9 60.9H31.8V50.2Z" fill="url(#middle)"/>
    <path d="M31.8 60.9H46.9C41.8 62.5 37.9 65.6 35.5 70.1L31.8 78.2V60.9Z" fill="url(#tail)"/>
    <path d="M31.8 60.9H42.2C37.4 63.4 34.1 67.3 31.8 72.9V60.9Z" fill="#011C40" opacity="0.13"/>
    <path d="M31.8 50.2H46.9C40 51.3 35.1 54.9 31.8 60.9V50.2Z" fill="#011C40" opacity="0.15"/>
  </g>
</svg>