<svg xmlns="http://www.w3.org/2000/svg" width="390" height="104" viewBox="0 0 390 104" role="img" aria-labelledby="title desc">
  <title id="title">Tendaflow logo</title>
  <desc id="desc">Tendaflow horizontal logo lockup with app icon, divider, and wordmark.</desc>
  <defs>
    <linearGradient id="icon-bg" x1="10" y1="12" x2="74" y2="78" gradientUnits="userSpaceOnUse">
      <stop offset="0" stop-color="#011C40"/>
      <stop offset="1" stop-color="#032B63"/>
    </linearGradient>
    <linearGradient id="top-ribbon" x1="20" y1="35" x2="66" y2="35" gradientUnits="userSpaceOnUse">
      <stop offset="0" stop-color="#1B6C9E"/>
      <stop offset="0.58" stop-color="#2798B4"/>
      <stop offset="1" stop-color="#54ACBF"/>
    </linearGradient>
    <linearGradient id="lower-ribbon" x1="30" y1="47" x2="57" y2="63" gradientUnits="userSpaceOnUse">
      <stop offset="0" stop-color="#A7EBF2"/>
      <stop offset="0.5" stop-color="#54ACBF"/>
      <stop offset="1" stop-color="#2387A7"/>
    </linearGradient>
    <linearGradient id="tail-ribbon" x1="29" y1="59" x2="43" y2="76" gradientUnits="userSpaceOnUse">
      <stop offset="0" stop-color="#54ACBF"/>
      <stop offset="1" stop-color="#A7EBF2"/>
    </linearGradient>
  </defs>
  <rect x="8" y="14" width="76" height="76" rx="17" fill="url(#icon-bg)"/>
  <path d="M21 38C21 33.8 24.4 30.4 28.6 30.4H71V33.2C71 39.6 65.8 44.8 59.4 44.8H21V38Z" fill="url(#top-ribbon)"/>
  <path d="M21 44.8C24.5 41.8 29.5 40.2 36 40.2H59.4C65.8 40.2 71 35.1 71 28.8V33.2C71 39.6 65.8 44.8 59.4 44.8H21Z" fill="#A7EBF2" opacity="0.18"/>
  <path d="M30 49.6H59.4V52.4C59.4 58.2 54.6 63 48.8 63H30V49.6Z" fill="url(#lower-ribbon)"/>
  <path d="M30 63H48.8C44.5 64.8 40.4 68 36.8 72.5L30 81V63Z" fill="url(#tail-ribbon)"/>
  <path d="M30 49.6H48.8C41 51 34.8 55.4 30 63V49.6Z" fill="#011C40" opacity="0.22"/>
  <path d="M30 63H37.5C34.4 65.6 31.9 69.5 30 74.6V63Z" fill="#011C40" opacity="0.12"/>
  <path d="M109 27V77" stroke="#26658C" stroke-width="2.5" stroke-linecap="round" opacity="0.78"/>
  <text x="130" y="65" fill="#011C40" font-family="Inter, ui-sans-serif, system-ui, -apple-system, BlinkMacSystemFont, 'Segoe UI', sans-serif" font-size="40" font-weight="800" letter-spacing="-0.9">Tendaflow</text>
</svg>