<svg xmlns="http://www.w3.org/2000/svg" width="96" height="96" viewBox="0 0 96 96" role="img" aria-labelledby="title desc">
  <title id="title">Tendaflow app icon</title>
  <desc id="desc">Dark rounded square with Tendaflow's approved layered F ribbon mark.</desc>
  <defs>
    <linearGradient id="icon-bg" x1="10" y1="8" x2="88" y2="90" gradientUnits="userSpaceOnUse">
      <stop offset="0" stop-color="#011C40"/>
      <stop offset="1" stop-color="#032B63"/>
    </linearGradient>
    <linearGradient id="tf-top" x1="20" y1="31" x2="76" y2="31" gradientUnits="userSpaceOnUse">
      <stop offset="0" stop-color="#17699C"/>
      <stop offset="0.52" stop-color="#2387A7"/>
      <stop offset="1" stop-color="#54ACBF"/>
    </linearGradient>
    <linearGradient id="tf-mid" x1="30" y1="47" x2="62" y2="58" gradientUnits="userSpaceOnUse">
      <stop offset="0" stop-color="#A7EBF2"/>
      <stop offset="0.52" stop-color="#54ACBF"/>
      <stop offset="1" stop-color="#2387A7"/>
    </linearGradient>
    <linearGradient id="tf-tail" x1="29" y1="58" x2="45" y2="79" gradientUnits="userSpaceOnUse">
      <stop offset="0" stop-color="#54ACBF"/>
      <stop offset="1" stop-color="#A7EBF2"/>
    </linearGradient>
  </defs>
  <rect x="9" y="9" width="78" height="78" rx="17" fill="url(#icon-bg)"/>
  <path d="M21 34C21 29.6 24.6 26 29 26H75V29.4C75 36 69.6 41.4 63 41.4H21V34Z" fill="url(#tf-top)"/>
  <path d="M21 41.4C25.2 37.6 31.4 35.8 39.4 35.8H63C69.6 35.8 75 30.4 75 23.8V29.4C75 36 69.6 41.4 63 41.4H21Z" fill="#A7EBF2" opacity="0.16"/>
  <path d="M30 47H63V49.5C63 56.1 57.6 61.5 51 61.5H30V47Z" fill="url(#tf-mid)"/>
  <path d="M30 61.5H51C46 63.2 41.8 66.3 38.3 70.8L30 81V61.5Z" fill="url(#tf-tail)"/>
  <path d="M30 47H51C42.1 48.6 35.2 53.4 30 61.5V47Z" fill="#011C40" opacity="0.22"/>
  <path d="M30 61.5H38.5C34.9 64.3 32.1 68.4 30 73.8V61.5Z" fill="#011C40" opacity="0.12"/>
</svg>