<svg xmlns="http://www.w3.org/2000/svg" width="96" height="96" viewBox="0 0 96 96" role="img" aria-labelledby="title desc">
  <title id="title">Tendaflow app icon</title>
  <desc id="desc">Dark rounded square with Tendaflow's layered F-like ribbon mark.</desc>
  <defs>
    <linearGradient id="icon-bg" x1="12" y1="8" x2="86" y2="88" gradientUnits="userSpaceOnUse">
      <stop offset="0" stop-color="#011C40"/>
      <stop offset="1" stop-color="#032B63"/>
    </linearGradient>
    <linearGradient id="top-ribbon" x1="18" y1="31" x2="74" y2="31" gradientUnits="userSpaceOnUse">
      <stop offset="0" stop-color="#1B6C9E"/>
      <stop offset="0.58" stop-color="#2798B4"/>
      <stop offset="1" stop-color="#54ACBF"/>
    </linearGradient>
    <linearGradient id="lower-ribbon" x1="30" y1="44" x2="63" y2="65" gradientUnits="userSpaceOnUse">
      <stop offset="0" stop-color="#A7EBF2"/>
      <stop offset="0.5" stop-color="#54ACBF"/>
      <stop offset="1" stop-color="#2387A7"/>
    </linearGradient>
    <linearGradient id="tail-ribbon" x1="28" y1="58" x2="45" y2="78" gradientUnits="userSpaceOnUse">
      <stop offset="0" stop-color="#54ACBF"/>
      <stop offset="1" stop-color="#A7EBF2"/>
    </linearGradient>
    <filter id="soft-shadow" x="-24%" y="-24%" width="148%" height="148%">
      <feDropShadow dx="0" dy="10" stdDeviation="10" flood-color="#011C40" flood-opacity="0.22"/>
    </filter>
  </defs>
  <rect x="9" y="9" width="78" height="78" rx="17" fill="url(#icon-bg)" filter="url(#soft-shadow)"/>
  <path d="M22 33C22 28.6 25.6 25 30 25H74V28C74 34.6 68.6 40 62 40H22V33Z" fill="url(#top-ribbon)"/>
  <path d="M22 40C25.6 36.9 30.8 35.3 37.6 35.3H62C68.6 35.3 74 30 74 23.4V28C74 34.6 68.6 40 62 40H22Z" fill="#A7EBF2" opacity="0.18"/>
  <path d="M31 45H62V48C62 54.1 57.1 59 51 59H31V45Z" fill="url(#lower-ribbon)"/>
  <path d="M31 59H51C46.4 60.9 42.1 64.3 38.3 69.1L31 78V59Z" fill="url(#tail-ribbon)"/>
  <path d="M31 45H51C42.8 46.4 36.1 51 31 59V45Z" fill="#011C40" opacity="0.22"/>
  <path d="M31 59H39C35.6 61.8 32.9 65.9 31 71.3V59Z" fill="#011C40" opacity="0.12"/>
</svg>